<svg xmlns="http://www.w3.org/2000/svg" viewBox="0 0 64 64" width="64px" height="64px"><linearGradient id="H0Na~BtvYiYsakjO~685Ma" x1="32" x2="32" y1="-1019" y2="-963.988" gradientTransform="translate(0 1024)" gradientUnits="userSpaceOnUse" spreadMethod="reflect"><stop offset="0" stop-color="#1a6dff"/><stop offset="1" stop-color="#c822ff"/></linearGradient><path fill="url(#H0Na~BtvYiYsakjO~685Ma)" d="M51.12,15.71l-8.83-8.83C41.73,6.31,40.97,6,40.17,6H15c-1.65,0-3,1.35-3,3v46 c0,1.65,1.35,3,3,3h34c1.65,0,3-1.35,3-3V17.83C52,17.03,51.69,16.27,51.12,15.71z M42,9.41L48.59,16H43c-0.55,0-1-0.45-1-1V9.41z M50,55c0,0.55-0.45,1-1,1H15c-0.55,0-1-0.45-1-1V9c0-0.55,0.45-1,1-1h25v7c0,1.65,1.35,3,3,3h7V55z"/><linearGradient id="H0Na~BtvYiYsakjO~685Mb" x1="32" x2="32" y1="31" y2="33" gradientUnits="userSpaceOnUse" spreadMethod="reflect"><stop offset="0" stop-color="#6dc7ff"/><stop offset="1" stop-color="#e6abff"/></linearGradient><path fill="url(#H0Na~BtvYiYsakjO~685Mb)" d="M23 31H41V33H23z"/><linearGradient id="H0Na~BtvYiYsakjO~685Mc" x1="32" x2="32" y1="35" y2="37" gradientUnits="userSpaceOnUse" spreadMethod="reflect"><stop offset="0" stop-color="#6dc7ff"/><stop offset="1" stop-color="#e6abff"/></linearGradient><path fill="url(#H0Na~BtvYiYsakjO~685Mc)" d="M23 35H41V37H23z"/><linearGradient id="H0Na~BtvYiYsakjO~685Md" x1="32" x2="32" y1="39" y2="41" gradientUnits="userSpaceOnUse" spreadMethod="reflect"><stop offset="0" stop-color="#6dc7ff"/><stop offset="1" stop-color="#e6abff"/></linearGradient><path fill="url(#H0Na~BtvYiYsakjO~685Md)" d="M23 39H41V41H23z"/><linearGradient id="H0Na~BtvYiYsakjO~685Me" x1="28" x2="28" y1="43" y2="45" gradientUnits="userSpaceOnUse" spreadMethod="reflect"><stop offset="0" stop-color="#6dc7ff"/><stop offset="1" stop-color="#e6abff"/></linearGradient><path fill="url(#H0Na~BtvYiYsakjO~685Me)" d="M23 43H33V45H23z"/></svg>