<svg xmlns="http://www.w3.org/2000/svg" viewBox="0 0 64 64" width="64px" height="64px"><linearGradient id="G~eiEhizVd0Ysy~V6im6za" x1="32" x2="32" y1="-1019" y2="-963.988" gradientTransform="translate(0 1024)" gradientUnits="userSpaceOnUse" spreadMethod="reflect"><stop offset="0" stop-color="#1a6dff"/><stop offset="1" stop-color="#c822ff"/></linearGradient><path fill="url(#G~eiEhizVd0Ysy~V6im6za)" d="M51.12,15.71l-8.83-8.83C41.73,6.31,40.97,6,40.17,6H15c-1.65,0-3,1.35-3,3v46 c0,1.65,1.35,3,3,3h34c1.65,0,3-1.35,3-3V17.83C52,17.03,51.69,16.27,51.12,15.71z M42,9.41L48.59,16H43c-0.55,0-1-0.45-1-1V9.41z M50,55c0,0.55-0.45,1-1,1H15c-0.55,0-1-0.45-1-1V9c0-0.55,0.45-1,1-1h25v7c0,1.65,1.35,3,3,3h7V55z"/><linearGradient id="G~eiEhizVd0Ysy~V6im6zb" x1="28.5" x2="28.5" y1="29" y2="40" gradientUnits="userSpaceOnUse" spreadMethod="reflect"><stop offset="0" stop-color="#6dc7ff"/><stop offset="1" stop-color="#e6abff"/></linearGradient><path fill="none" stroke="url(#G~eiEhizVd0Ysy~V6im6zb)" stroke-miterlimit="10" stroke-width="2" d="M28.5 30A4.5 4.5 0 1 0 28.5 39A4.5 4.5 0 1 0 28.5 30Z"/><linearGradient id="G~eiEhizVd0Ysy~V6im6zc" x1="36.5" x2="36.5" y1="37" y2="46" gradientUnits="userSpaceOnUse" spreadMethod="reflect"><stop offset="0" stop-color="#6dc7ff"/><stop offset="1" stop-color="#e6abff"/></linearGradient><path fill="url(#G~eiEhizVd0Ysy~V6im6zc)" d="M35.562,37C34.93,38.78,33.65,40.253,32,41.128V46h9v-9H35.562z"/></svg>