<svg xmlns="http://www.w3.org/2000/svg" viewBox="0 0 64 64" width="64px" height="64px"><linearGradient id="AI0Q8qwVa62KQ7WTzEIZja" x1="32" x2="32" y1="6" y2="59" gradientUnits="userSpaceOnUse" spreadMethod="reflect"><stop offset="0" stop-color="#1a6dff"/><stop offset="1" stop-color="#c822ff"/></linearGradient><path fill="none" stroke="url(#AI0Q8qwVa62KQ7WTzEIZja)" stroke-linejoin="round" stroke-miterlimit="10" stroke-width="2" d="M31.037 7L26 19 13 11 18 26 6 30 18 36 11 47 25 45 28 58 36 46 51 51 44 37 58 30 44 27 51 14 36 19z"/><linearGradient id="AI0Q8qwVa62KQ7WTzEIZjb" x1="31" x2="31" y1="18" y2="48" gradientUnits="userSpaceOnUse" spreadMethod="reflect"><stop offset="0" stop-color="#6dc7ff"/><stop offset="1" stop-color="#e6abff"/></linearGradient><path fill="url(#AI0Q8qwVa62KQ7WTzEIZjb)" d="M31,18l3,7l7.684-3.773L37,30l8,2l-7,3l5,9l-9-4l-4,8l-2-9l-8,2l4-7l-7-3l6.714-2.207 l-3.546-8.647L29,25L31,18z"/></svg>