<svg xmlns="http://www.w3.org/2000/svg" viewBox="0 0 64 64" width="64px" height="64px"><linearGradient id="7VQF0sKTAgnp1emj6oowda" x1="32" x2="32" y1="10.75" y2="53.762" gradientUnits="userSpaceOnUse" spreadMethod="reflect"><stop offset="0" stop-color="#1a6dff"/><stop offset="1" stop-color="#c822ff"/></linearGradient><path fill="url(#7VQF0sKTAgnp1emj6oowda)" d="M58,18h-4.538c-0.443,0-0.835-0.282-0.975-0.702l-0.627-1.877 C51.179,13.375,49.271,12,47.114,12H16.886c-2.157,0-4.064,1.375-4.746,3.421l-0.627,1.877C11.373,17.718,10.981,18,10.538,18H6 c-1.654,0-3,1.346-3,3v22c0,1.654,1.346,3,3,3h4.538c0.443,0,0.835,0.282,0.976,0.703l0.626,1.876 C12.821,50.625,14.729,52,16.886,52h30.229c2.157,0,4.064-1.375,4.746-3.421l0.627-1.877c0.14-0.42,0.531-0.702,0.975-0.702H58 c1.654,0,3-1.346,3-3V21C61,19.346,59.654,18,58,18z M59,43c0,0.551-0.448,1-1,1h-4.538c-1.307,0-2.461,0.832-2.872,2.07 l-0.626,1.876C49.554,49.175,48.409,50,47.114,50H16.886c-1.295,0-2.439-0.825-2.85-2.054l-0.625-1.875 C12.999,44.832,11.845,44,10.538,44H6c-0.552,0-1-0.449-1-1V21c0-0.551,0.448-1,1-1h4.538c1.307,0,2.461-0.832,2.872-2.07 l0.626-1.876c0.41-1.229,1.555-2.054,2.85-2.054h30.229c1.295,0,2.439,0.825,2.85,2.054l0.626,1.876 c0.412,1.238,1.566,2.07,2.872,2.07H58c0.552,0,1,0.449,1,1V43z"/><linearGradient id="7VQF0sKTAgnp1emj6oowdb" x1="32" x2="32" y1="10.75" y2="53.762" gradientUnits="userSpaceOnUse" spreadMethod="reflect"><stop offset="0" stop-color="#1a6dff"/><stop offset="1" stop-color="#c822ff"/></linearGradient><path fill="url(#7VQF0sKTAgnp1emj6oowdb)" d="M46,20H18c-1.654,0-3,1.346-3,3v18c0,1.654,1.346,3,3,3h28c1.654,0,3-1.346,3-3V23 C49,21.346,47.654,20,46,20z M47,41c0,0.551-0.448,1-1,1H18c-0.552,0-1-0.449-1-1V23c0-0.551,0.448-1,1-1h28c0.552,0,1,0.449,1,1V41 z"/><linearGradient id="7VQF0sKTAgnp1emj6oowdc" x1="54" x2="54" y1="10.75" y2="53.762" gradientUnits="userSpaceOnUse" spreadMethod="reflect"><stop offset="0" stop-color="#1a6dff"/><stop offset="1" stop-color="#c822ff"/></linearGradient><path fill="url(#7VQF0sKTAgnp1emj6oowdc)" d="M55,26h-2c-1.103,0-2,0.897-2,2v2c0,1.103,0.897,2,2,2h2c1.103,0,2-0.897,2-2v-2 C57,26.897,56.103,26,55,26z M55,30h-2v-2h2V30z"/><linearGradient id="7VQF0sKTAgnp1emj6oowdd" x1="54" x2="54" y1="10.75" y2="53.762" gradientUnits="userSpaceOnUse" spreadMethod="reflect"><stop offset="0" stop-color="#1a6dff"/><stop offset="1" stop-color="#c822ff"/></linearGradient><path fill="url(#7VQF0sKTAgnp1emj6oowdd)" d="M55,34h-2c-1.103,0-2,0.897-2,2v2c0,1.103,0.897,2,2,2h2c1.103,0,2-0.897,2-2v-2 C57,34.897,56.103,34,55,34z M55,38h-2v-2h2V38z"/><linearGradient id="7VQF0sKTAgnp1emj6oowde" x1="10" x2="10" y1="10.75" y2="53.762" gradientUnits="userSpaceOnUse" spreadMethod="reflect"><stop offset="0" stop-color="#1a6dff"/><stop offset="1" stop-color="#c822ff"/></linearGradient><path fill="url(#7VQF0sKTAgnp1emj6oowde)" d="M11 29L9 29 9 31 7 31 7 33 9 33 9 35 11 35 11 33 13 33 13 31 11 31z"/><linearGradient id="7VQF0sKTAgnp1emj6oowdf" x1="32" x2="32" y1="10.75" y2="53.762" gradientUnits="userSpaceOnUse" spreadMethod="reflect"><stop offset="0" stop-color="#1a6dff"/><stop offset="1" stop-color="#c822ff"/></linearGradient><path fill="url(#7VQF0sKTAgnp1emj6oowdf)" d="M30 46H34V48H30z"/><linearGradient id="7VQF0sKTAgnp1emj6oowdg" x1="38" x2="38" y1="10.75" y2="53.762" gradientUnits="userSpaceOnUse" spreadMethod="reflect"><stop offset="0" stop-color="#1a6dff"/><stop offset="1" stop-color="#c822ff"/></linearGradient><path fill="url(#7VQF0sKTAgnp1emj6oowdg)" d="M36 46H40V48H36z"/><linearGradient id="7VQF0sKTAgnp1emj6oowdh" x1="26" x2="26" y1="10.75" y2="53.762" gradientUnits="userSpaceOnUse" spreadMethod="reflect"><stop offset="0" stop-color="#1a6dff"/><stop offset="1" stop-color="#c822ff"/></linearGradient><path fill="url(#7VQF0sKTAgnp1emj6oowdh)" d="M24 46H28V48H24z"/><linearGradient id="7VQF0sKTAgnp1emj6oowdi" x1="38" x2="38" y1="28.833" y2="33.519" gradientUnits="userSpaceOnUse" spreadMethod="reflect"><stop offset="0" stop-color="#6dc7ff"/><stop offset="1" stop-color="#e6abff"/></linearGradient><path fill="url(#7VQF0sKTAgnp1emj6oowdi)" d="M38 29A2 2 0 1 0 38 33A2 2 0 1 0 38 29Z"/><linearGradient id="7VQF0sKTAgnp1emj6oowdj" x1="26" x2="26" y1="28.833" y2="33.519" gradientUnits="userSpaceOnUse" spreadMethod="reflect"><stop offset="0" stop-color="#6dc7ff"/><stop offset="1" stop-color="#e6abff"/></linearGradient><path fill="url(#7VQF0sKTAgnp1emj6oowdj)" d="M26 29A2 2 0 1 0 26 33A2 2 0 1 0 26 29Z"/><linearGradient id="7VQF0sKTAgnp1emj6oowdk" x1="32" x2="32" y1="32.5" y2="37.417" gradientUnits="userSpaceOnUse" spreadMethod="reflect"><stop offset="0" stop-color="#6dc7ff"/><stop offset="1" stop-color="#e6abff"/></linearGradient><path fill="url(#7VQF0sKTAgnp1emj6oowdk)" d="M29,34c0,1.657,1.343,3,3,3c1.657,0,3-1.343,3-3v-1h-6V34z"/></svg>