<svg xmlns="http://www.w3.org/2000/svg" viewBox="0 0 64 64" width="96px" height="96px"><linearGradient id="nBOHFgvGyGQjq0xMO5AOva" x1="32" x2="32" y1="9.833" y2="42.687" gradientUnits="userSpaceOnUse" spreadMethod="reflect"><stop offset="0" stop-color="#6dc7ff"/><stop offset="1" stop-color="#e6abff"/></linearGradient><path fill="url(#nBOHFgvGyGQjq0xMO5AOva)" d="M31,45h-2v-5c0-2.757,2.243-5,5-5h3.906C41.267,35,44,32.267,44,28.906V17 c0-2.757-2.243-5-5-5H25c-2.757,0-5,2.243-5,5v6h-2v-6c0-3.86,3.14-7,7-7h14c3.86,0,7,3.14,7,7v11.906 C46,33.369,42.369,37,37.906,37H34c-1.654,0-3,1.346-3,3V45z"/><linearGradient id="nBOHFgvGyGQjq0xMO5AOvb" x1="32" x2="32" y1="6.833" y2="61.173" gradientUnits="userSpaceOnUse" spreadMethod="reflect"><stop offset="0" stop-color="#1a6dfd"/><stop offset="1" stop-color="#c522fd"/></linearGradient><path fill="url(#nBOHFgvGyGQjq0xMO5AOvb)" d="M39,6H25c-6.075,0-11,4.925-11,11v5c0,1.105,0.895,2,2,2h6c1.105,0,2-0.895,2-2v-5 c0-0.552,0.448-1,1-1h14c0.552,0,1,0.448,1,1v11.906C40,30.063,39.063,31,37.906,31H34c-4.971,0-9,4.029-9,9v4c0,1.105,0.895,2,2,2 h6c1.105,0,2-0.895,2-2v-3h2.906C44.585,41,50,35.585,50,28.906V17C50,10.925,45.075,6,39,6z M48,28.906 C48,34.481,43.481,39,37.906,39H34c-0.552,0-1,0.448-1,1v4h-6v-4c0-3.866,3.134-7,7-7h3.906C40.167,33,42,31.167,42,28.906V17 c0-1.657-1.343-3-3-3H25c-1.657,0-3,1.343-3,3v5h-6v-5c0-4.971,4.029-9,9-9h14c4.971,0,9,4.029,9,9V28.906z"/><linearGradient id="nBOHFgvGyGQjq0xMO5AOvc" x1="30" x2="30" y1="6.833" y2="61.173" gradientUnits="userSpaceOnUse" spreadMethod="reflect"><stop offset="0" stop-color="#1a6dfd"/><stop offset="1" stop-color="#c522fd"/></linearGradient><path fill="url(#nBOHFgvGyGQjq0xMO5AOvc)" d="M31.358,48.18c-3.799-1.008-7.187,2.379-6.178,6.178c0.443,1.669,1.793,3.019,3.462,3.462 c3.799,1.008,7.187-2.379,6.178-6.178C34.377,49.973,33.027,48.623,31.358,48.18z M30.588,55.944 c-2.11,0.403-3.935-1.422-3.532-3.532c0.224-1.173,1.183-2.132,2.356-2.356c2.11-0.403,3.935,1.422,3.532,3.532 C32.72,54.761,31.761,55.72,30.588,55.944z"/><g><path fill="#fff" d="M17 20H21V22H17z"/></g><g><path fill="#fff" d="M28 42H32V44H28z"/></g></svg>