<svg xmlns="http://www.w3.org/2000/svg" viewBox="0 0 64 64" width="96px" height="96px"><linearGradient id="zzTLIWCTHj9Qa~_BYcPrva" x1="17" x2="17" y1="16.957" y2="22.495" gradientUnits="userSpaceOnUse"><stop offset="0" stop-color="#6dc7ff"/><stop offset="1" stop-color="#e6abff"/></linearGradient><circle cx="17" cy="20" r="3" fill="url(#zzTLIWCTHj9Qa~_BYcPrva)"/><linearGradient id="zzTLIWCTHj9Qa~_BYcPrvb" x1="33" x2="33" y1="16.957" y2="22.495" gradientUnits="userSpaceOnUse"><stop offset="0" stop-color="#6dc7ff"/><stop offset="1" stop-color="#e6abff"/></linearGradient><circle cx="33" cy="20" r="3" fill="url(#zzTLIWCTHj9Qa~_BYcPrvb)"/><linearGradient id="zzTLIWCTHj9Qa~_BYcPrvc" x1="55" x2="55" y1="30" y2="51.389" gradientUnits="userSpaceOnUse"><stop offset="0" stop-color="#6dc7ff"/><stop offset="1" stop-color="#e6abff"/></linearGradient><rect width="4" height="22" x="53" y="30" fill="url(#zzTLIWCTHj9Qa~_BYcPrvc)"/><linearGradient id="zzTLIWCTHj9Qa~_BYcPrvd" x1="23" x2="23" y1="44.947" y2="47.085" gradientUnits="userSpaceOnUse"><stop offset="0" stop-color="#6dc7ff"/><stop offset="1" stop-color="#e6abff"/></linearGradient><circle cx="23" cy="46" r="1" fill="url(#zzTLIWCTHj9Qa~_BYcPrvd)"/><linearGradient id="zzTLIWCTHj9Qa~_BYcPrve" x1="27" x2="27" y1="44.947" y2="47.085" gradientUnits="userSpaceOnUse"><stop offset="0" stop-color="#6dc7ff"/><stop offset="1" stop-color="#e6abff"/></linearGradient><circle cx="27" cy="46" r="1" fill="url(#zzTLIWCTHj9Qa~_BYcPrve)"/><linearGradient id="zzTLIWCTHj9Qa~_BYcPrvf" x1="31" x2="31" y1="44.947" y2="47.085" gradientUnits="userSpaceOnUse"><stop offset="0" stop-color="#6dc7ff"/><stop offset="1" stop-color="#e6abff"/></linearGradient><circle cx="31" cy="46" r="1" fill="url(#zzTLIWCTHj9Qa~_BYcPrvf)"/><linearGradient id="zzTLIWCTHj9Qa~_BYcPrvg" x1="30.5" x2="30.5" y1="8.872" y2="55.618" gradientUnits="userSpaceOnUse"><stop offset="0" stop-color="#1a6dff"/><stop offset="1" stop-color="#c822ff"/></linearGradient><path fill="url(#zzTLIWCTHj9Qa~_BYcPrvg)" d="M42,33H19c-0.552,0-1,0.448-1,1v16c0,0.552,0.448,1,1,1h23c0.552,0,1-0.448,1-1V34 C43,33.448,42.552,33,42,33z M41,49H20V35h21V49z"/><linearGradient id="zzTLIWCTHj9Qa~_BYcPrvh" x1="32" x2="32" y1="8.872" y2="55.618" gradientUnits="userSpaceOnUse"><stop offset="0" stop-color="#1a6dff"/><stop offset="1" stop-color="#c822ff"/></linearGradient><path fill="url(#zzTLIWCTHj9Qa~_BYcPrvh)" d="M57,29h-4c-0.218,0-0.431,0.071-0.604,0.203L47,33.296v-1.263C47,30.361,45.639,29,43.967,29 h-4.662C42.139,27.008,44,23.72,44,20c0-6.065-4.935-11-11-11c-3.072,0-5.926,1.249-8,3.463C22.926,10.249,20.072,9,17,9 C10.935,9,6,13.935,6,20c0,5.148,3.559,9.469,8.343,10.662C14.131,31.076,14,31.537,14,32.033V50c0,2.757,2.243,5,5,5h23 c2.757,0,5-2.243,5-5v-1.281l5.391,4.143c0.175,0.134,0.389,0.207,0.609,0.207c0.006,0,0.012,0,0.017,0l4-0.069 C57.563,52.99,58,52.545,58,52V30C58,29.448,57.552,29,57,29z M8,20c0-4.962,4.038-9,9-9c2.854,0,5.478,1.318,7.2,3.618 c0.377,0.504,1.224,0.504,1.601,0C27.522,12.318,30.146,11,33,11c4.962,0,9,4.038,9,9s-4.038,9-9,9H17.033H17 C12.038,29,8,24.962,8,20z M45,35.311v11.379V50c0,1.654-1.346,3-3,3H19c-1.654,0-3-1.346-3-3V32.033 C16,31.463,16.463,31,17.033,31H33h10.967C44.537,31,45,31.463,45,32.033V35.311z M52,50.039l-5-3.843v-10.39l5-3.793V50.039z M56,51.017l-2,0.034V31h2V51.017z"/><linearGradient id="zzTLIWCTHj9Qa~_BYcPrvi" x1="36.5" x2="36.5" y1="35.191" y2="42.853" gradientUnits="userSpaceOnUse"><stop offset="0" stop-color="#6dc7ff"/><stop offset="1" stop-color="#e6abff"/></linearGradient><path fill="url(#zzTLIWCTHj9Qa~_BYcPrvi)" d="M39,42v-4c0-0.552-0.448-1-1-1h-4L39,42z"/></svg>